# xmcd
#
# Track frame offsets:
#	150
#	9213
#	21596
#	32584
#	48467
#	60645
#	72628
#	85881
#	96556
#	109242
#	117598
#	126591
#	137641
#	150219
#	161882
#	171478
#	182957
#	196169
#	209063
#	220102
#	229830
#	239809
#	251326
#	264574
#	277822
#	289288
#	300851
#	315445
#	323645
#	336073
#
# Disc length: 4630 seconds
#
# Revision: 0
# Processed by: cddbd v1.5PL3 Copyright (c) Steve Scherf et al.
# Submitted via: audiograbber 1.80
#
DISCID=c312141e
DTITLE=frankie laine - `I Believe cd2
DYEAR=1900
DGENRE=
TTITLE0=Hambone (& Jo Stafford) 
TTITLE1=Let's Have A Party (& Jo Stafford) 
TTITLE2=There's A Rainbow 'round My Shoulder 
TTITLE3=She's Funny That Way 
TTITLE4=The Rock Of Gibraltar 
TTITLE5=High Noon (Do Not Forsake Me) 
TTITLE6=The Mermaid 
TTITLE7=Tonight You Belong To Me 
TTITLE8=My Ohio Home 
TTITLE9=Settin' The Woods On Fire (& Jo Stafford) 
TTITLE10=Piece A-Puddin' (& Jo Stafford) 
TTITLE11=Christmas Roses (& Jo Stafford) 
TTITLE12=I'd Give My Life 
TTITLE13=The Ruby And The Pearl 
TTITLE14=Chow, Willy (& Jo Stafford) 
TTITLE15=I'm Just A Poor Bachelor 
TTITLE16=The Swan Song 
TTITLE17=The Little Boy And The Old Man (& Jimmy Boyd) 
TTITLE18=Your Cheatin' Heart 
TTITLE19=I Believe 
TTITLE20=Tell Me A Story (& Jimmy Boyd) 
TTITLE21=Some Day 
TTITLE22=Lorelei 
TTITLE23=Granada 
TTITLE24=Where The Winds Blow 
TTITLE25=I Let Her Go 
TTITLE26=Te Amo 
TTITLE27=A Bushel And A Peck (& Jo Stafford) 
TTITLE28=Let's Fishin' (& Jimmy Boyd) 
TTITLE29=Poor Little Piggy Bank (& Jimmy Boyd) 
EXTD=
EXTT0=
EXTT1=
EXTT2=
EXTT3=
EXTT4=
EXTT5=
EXTT6=
EXTT7=
EXTT8=
EXTT9=
EXTT10=
EXTT11=
EXTT12=
EXTT13=
EXTT14=
EXTT15=
EXTT16=
EXTT17=
EXTT18=
EXTT19=
EXTT20=
EXTT21=
EXTT22=
EXTT23=
EXTT24=
EXTT25=
EXTT26=
EXTT27=
EXTT28=
EXTT29=
PLAYORDER=
